<?xml version="1.0" encoding="UTF-8" standalone="no"?><!DOCTYPE svg PUBLIC "-//W3C//DTD SVG 1.1//EN" "http://www.w3.org/Graphics/SVG/1.1/DTD/svg11.dtd"><svg width="100%" height="100%" viewBox="0 0 65 68" version="1.1" xmlns="http://www.w3.org/2000/svg" xmlns:xlink="http://www.w3.org/1999/xlink" xml:space="preserve" style="fill-rule:evenodd;clip-rule:evenodd;stroke-linecap:round;stroke-linejoin:round;stroke-miterlimit:1.5;"><g><circle cx="31.918" cy="7.19" r="6.69" style="fill:none;stroke:#fff;stroke-width:1px;"/><circle cx="12.568" cy="10.407" r="5.313" style="fill:none;stroke:#fff;stroke-width:1px;"/><circle cx="50.988" cy="10.622" r="5.313" style="fill:none;stroke:#fff;stroke-width:1px;"/><path d="M12.321,20.289l-8.31,0c0,0 -3.511,0.215 -3.511,3.797l0,14.185c0,0 -0.128,4.204 4.335,3.287" style="fill:none;stroke:#fff;stroke-width:1px;"/><path d="M5.935,27.62l0.39,30.692c0,0 1.834,3.056 6.037,0.84l0,-9.704" style="fill:none;stroke:#fff;stroke-width:1px;"/><path d="M24.144,45.226c-6.091,0.516 -7.151,-3.352 -7.168,-3.352c-0.017,0 0,-18.953 0,-18.953c0.083,-3.568 3.547,-3.456 3.547,-3.456l22.159,0c0,0 4.811,-1.013 4.431,4.178l0,18.486c0,0 -0.506,3.292 -5.571,2.659" style="fill:none;stroke:#fff;stroke-width:1px;"/><path d="M24.304,28.307l0,36.304c0,0 2.356,4.595 7.758,1.065" style="fill:none;stroke:#fff;stroke-width:1px;"/><path d="M32.134,44.499l0,20.889" style="fill:none;stroke:#fff;stroke-width:1px;"/><path d="M51.779,20.44l9.835,0c0,0 2.695,-0.073 2.404,3.569l0,14.57c0,0 -0.728,4.08 -4.371,3.57l-2.258,0" style="fill:none;stroke:#fff;stroke-width:1px;"/><path d="M57.17,27.725l0,29.709c0,0 -1.751,4.963 -6.286,0.945l0,-8.395" style="fill:none;stroke:#fff;stroke-width:1px;"/><path d="M39.627,27.565l0,36.836c0,0 -3.19,5.025 -7.201,1.152" style="fill:none;stroke:#fff;stroke-width:1px;"/></g></svg>