<?xml version="1.0" encoding="UTF-8" standalone="no"?><!DOCTYPE svg PUBLIC "-//W3C//DTD SVG 1.1//EN" "http://www.w3.org/Graphics/SVG/1.1/DTD/svg11.dtd"><svg width="100%" height="100%" viewBox="0 0 60 57" version="1.1" xmlns="http://www.w3.org/2000/svg" xmlns:xlink="http://www.w3.org/1999/xlink" xml:space="preserve" style="fill-rule:evenodd;clip-rule:evenodd;stroke-linecap:round;stroke-linejoin:round;stroke-miterlimit:1.5;"><g><circle cx="29.704" cy="4.884" r="4.384" style="fill:none;stroke:#fff;stroke-width:1px;"/><circle cx="19.949" cy="31.454" r="4.384" style="fill:none;stroke:#fff;stroke-width:1px;"/><circle cx="39.638" cy="31.454" r="4.384" style="fill:none;stroke:#fff;stroke-width:1px;"/><path d="M21.586,19.513c0,0 0.595,-7.397 8.417,-7.142c0,0 7.482,-0.426 8.418,6.972" style="fill:none;stroke:#fff;stroke-width:1px;"/><path d="M6.962,39.578l-6.462,0l4.336,-17.77l49.144,0l5.101,17.685l-5.951,0" style="fill:none;stroke:#fff;stroke-width:1px;"/><path d="M13.016,55.453l0,-12.961c0,0 -0.532,-3.4 2.976,-3.294l9.14,0c0,0 1.913,0.319 1.913,2.657l0,13.698" style="fill:none;stroke:#fff;stroke-width:1px;"/><path d="M32.278,55.453l0,-12.961c0,0 -0.532,-3.4 2.975,-3.294l9.14,0c0,0 1.914,0.319 1.914,2.657l0,13.698" style="fill:none;stroke:#fff;stroke-width:1px;"/></g></svg>