<?xml version="1.0" encoding="UTF-8" standalone="no"?><!DOCTYPE svg PUBLIC "-//W3C//DTD SVG 1.1//EN" "http://www.w3.org/Graphics/SVG/1.1/DTD/svg11.dtd"><svg width="100%" height="100%" viewBox="0 0 64 50" version="1.1" xmlns="http://www.w3.org/2000/svg" xmlns:xlink="http://www.w3.org/1999/xlink" xml:space="preserve" style="fill-rule:evenodd;clip-rule:evenodd;stroke-linecap:round;stroke-linejoin:round;stroke-miterlimit:1.5;"><g><path d="M40.655,6.418l0,-3.474c0,0 0.053,-2.444 -3.276,-2.444l-34.22,0c0,0 -2.537,0.232 -2.537,2.117c0,0 -0.274,43.629 0,43.629c0.273,0 -0.271,3.129 4.445,3.039l32.557,0c0,0 3.047,-0.314 2.975,-2.674l0,-4.004" style="fill:none;stroke:#fff;stroke-width:1px;"/><path d="M52.903,4.699l9.983,9.839l-6.655,3.89l-3.947,11.746l-21.756,8.343l-1.548,-1.526l7.739,-21.992l10.576,-2.669l5.608,-7.631Z" style="fill:none;stroke:#fff;stroke-width:1px;"/><path d="M48.063,12.329l7.327,6.219" style="fill:none;stroke:#fff;stroke-width:1px;"/><path d="M37.341,29.795l5.749,-5.739" style="fill:none;stroke:#fff;stroke-width:1px;"/><ellipse cx="44.63" cy="22.683" rx="1.526" ry="1.504" style="fill:none;stroke:#fff;stroke-width:1px;"/><path d="M12.192,10.801l16.905,0" style="fill:none;stroke:#fff;stroke-width:1px;"/><path d="M12.192,17.55l16.905,0" style="fill:none;stroke:#fff;stroke-width:1px;"/><path d="M11.866,23.779l9.988,0" style="fill:none;stroke:#fff;stroke-width:1px;"/><path d="M11.611,39.184l10.376,0" style="fill:none;stroke:#fff;stroke-width:1px;"/></g></svg>