<?xml version="1.0" encoding="UTF-8" standalone="no"?><!DOCTYPE svg PUBLIC "-//W3C//DTD SVG 1.1//EN" "http://www.w3.org/Graphics/SVG/1.1/DTD/svg11.dtd"><svg width="100%" height="100%" viewBox="0 0 54 65" version="1.1" xmlns="http://www.w3.org/2000/svg" xmlns:xlink="http://www.w3.org/1999/xlink" xml:space="preserve" style="fill-rule:evenodd;clip-rule:evenodd;stroke-linecap:round;stroke-linejoin:round;stroke-miterlimit:1.5;"><g><path d="M14.822,15.315l0,-11.686c-0.141,-3.661 2.252,-3.098 2.252,-3.098l19.854,0c0,0 2.041,-0.493 2.041,3.52l0,10.701" style="fill:none;stroke:#fff;stroke-width:1px;"/><rect x="20.293" y="5.66" width="4.596" height="5.001" style="fill:none;stroke:#fff;stroke-width:1px;"/><rect x="15.895" y="22.178" width="4.596" height="5.001" style="fill:none;stroke:#fff;stroke-width:1px;"/><rect x="15.895" y="32.992" width="4.596" height="5.001" style="fill:none;stroke:#fff;stroke-width:1px;"/><rect x="15.895" y="43.805" width="4.596" height="5.001" style="fill:none;stroke:#fff;stroke-width:1px;"/><rect x="24.723" y="22.178" width="4.596" height="5.001" style="fill:none;stroke:#fff;stroke-width:1px;"/><rect x="24.723" y="32.992" width="4.596" height="5.001" style="fill:none;stroke:#fff;stroke-width:1px;"/><rect x="24.723" y="43.805" width="4.596" height="5.001" style="fill:none;stroke:#fff;stroke-width:1px;"/><rect x="33.374" y="22.178" width="4.596" height="5.001" style="fill:none;stroke:#fff;stroke-width:1px;"/><rect x="33.374" y="32.992" width="4.596" height="5.001" style="fill:none;stroke:#fff;stroke-width:1px;"/><rect x="33.374" y="43.805" width="4.596" height="5.001" style="fill:none;stroke:#fff;stroke-width:1px;"/><rect x="29.394" y="5.66" width="4.596" height="5.001" style="fill:none;stroke:#fff;stroke-width:1px;"/><path d="M44.818,18.646c0,-1.661 -1.346,-3.007 -3.008,-3.007c-6.689,0 -22.742,0 -29.535,0c-0.828,0 -1.622,0.328 -2.207,0.914c-0.586,0.585 -0.914,1.379 -0.914,2.207c0,10.664 0,45.004 0,45.004l35.664,0c0,0 0,-34.585 0,-45.118Z" style="fill:none;stroke:#fff;stroke-width:1px;"/><path d="M0.5,63.806l52.801,0" style="fill:none;stroke:#fff;stroke-width:1px;"/><path d="M17.661,62.823l0,-7.947l18.901,0l0,8.06" style="fill:none;stroke:#fff;stroke-width:1px;"/></g></svg>