<?xml version="1.0" encoding="UTF-8" standalone="no"?><!DOCTYPE svg PUBLIC "-//W3C//DTD SVG 1.1//EN" "http://www.w3.org/Graphics/SVG/1.1/DTD/svg11.dtd"><svg width="100%" height="100%" viewBox="0 0 60 59" version="1.1" xmlns="http://www.w3.org/2000/svg" xmlns:xlink="http://www.w3.org/1999/xlink" xml:space="preserve" style="fill-rule:evenodd;clip-rule:evenodd;stroke-linecap:round;stroke-linejoin:round;stroke-miterlimit:1.5;"><g><path d="M13.857,0.516l21.766,0c0,0 4.155,-0.326 5.231,1.975l10.255,10.255c0,0 2.053,1.178 1.926,4.408l0,19.064" style="fill:none;stroke:#fff;stroke-width:1px;"/><path d="M7.518,36.171l0,-26.978c-0.039,-2.256 1.579,-2.355 1.579,-2.355l23.69,0c0,0 2.878,-0.353 5.058,2.466c1.764,2.281 6.8,6.8 6.8,6.8c0,0 1.861,1.68 1.767,4.088l0,16.151" style="fill:none;stroke:#fff;stroke-width:1px;"/><path d="M33.289,7.28l0,10.631l12.246,0" style="fill:none;stroke:#fff;stroke-width:1px;"/><path d="M14.542,17.221l11.684,0" style="fill:none;stroke:#fff;stroke-width:1px;"/><path d="M14.305,23.713l25.435,0" style="fill:none;stroke:#fff;stroke-width:1px;"/><path d="M14.305,30.253l25.435,0" style="fill:none;stroke:#fff;stroke-width:1px;"/><path d="M58.67,45.21c0,-2.122 -0.842,-4.157 -2.343,-5.657c-1.5,-1.5 -3.535,-2.343 -5.657,-2.343c-11.102,0 -31.067,0 -42.17,0c-2.122,0 -4.157,0.843 -5.657,2.343c-1.5,1.5 -2.343,3.535 -2.343,5.657c0,1.661 0,3.41 0,5.071c0,2.122 0.843,4.157 2.343,5.657c1.5,1.5 3.535,2.343 5.657,2.343c11.103,0 31.068,0 42.17,0c2.122,0 4.157,-0.843 5.657,-2.343c1.501,-1.5 2.343,-3.535 2.343,-5.657c0,-1.661 0,-3.41 0,-5.071Z" style="fill:none;stroke:#fff;stroke-width:1px;"/><circle cx="29.268" cy="47.85" r="5.611" style="fill:none;stroke:#fff;stroke-width:1px;"/></g></svg>