<?xml version="1.0" encoding="UTF-8" standalone="no"?><!DOCTYPE svg PUBLIC "-//W3C//DTD SVG 1.1//EN" "http://www.w3.org/Graphics/SVG/1.1/DTD/svg11.dtd"><svg width="100%" height="100%" viewBox="0 0 64 56" version="1.1" xmlns="http://www.w3.org/2000/svg" xmlns:xlink="http://www.w3.org/1999/xlink" xml:space="preserve" style="fill-rule:evenodd;clip-rule:evenodd;stroke-linecap:round;stroke-linejoin:round;stroke-miterlimit:1.5;"><g><rect x="19.619" y="0.5" width="43.881" height="7.313" style="fill:none;stroke:#fff;stroke-width:1px;"/><path d="M21.328,19.264l0,-10.789" style="fill:none;stroke:#fff;stroke-width:1px;"/><path d="M61.217,8.462l0,29.943l-39.594,0l0,-7.464" style="fill:none;stroke:#fff;stroke-width:1px;"/><path d="M26.392,33.506l6.217,0l3.462,-4.288l5.902,0l5.945,-10.214l4.262,0l4.066,-5.574" style="fill:none;stroke:#fff;stroke-width:1px;"/><path d="M31.715,41.657l0,12.927" style="fill:none;stroke:#fff;stroke-width:1px;"/><path d="M52.592,41.657l0,12.927" style="fill:none;stroke:#fff;stroke-width:1px;"/><path d="M28.898,54.588l5.628,0" style="fill:none;stroke:#fff;stroke-width:1px;"/><path d="M49.775,54.588l5.629,0" style="fill:none;stroke:#fff;stroke-width:1px;"/><ellipse cx="11.1" cy="13.418" rx="4.657" ry="5.943" style="fill:none;stroke:#fff;stroke-width:1px;"/><path d="M5.645,28.674l0,25.949" style="fill:none;stroke:#fff;stroke-width:1px;"/><path d="M11.716,39.876l0,15.412" style="fill:none;stroke:#fff;stroke-width:1px;"/><path d="M5.201,41.448c-4.257,0.621 -4.701,-3.371 -4.701,-3.371l0,-10.023c0,-5.589 6.298,-6.21 6.298,-6.21l25.635,0l-0.003,0.135c0,0 -0.148,3.898 -4.254,5.317l-10.796,0l0,27.858" style="fill:none;stroke:#fff;stroke-width:1px;"/></g></svg>