<?xml version="1.0" encoding="UTF-8" standalone="no"?><!DOCTYPE svg PUBLIC "-//W3C//DTD SVG 1.1//EN" "http://www.w3.org/Graphics/SVG/1.1/DTD/svg11.dtd"><svg width="100%" height="100%" viewBox="0 0 78 56" version="1.1" xmlns="http://www.w3.org/2000/svg" xmlns:xlink="http://www.w3.org/1999/xlink" xml:space="preserve" style="fill-rule:evenodd;clip-rule:evenodd;stroke-linecap:round;stroke-linejoin:round;stroke-miterlimit:1.5;"><g><path d="M0.5,0.5l76.365,0.237l0.599,48.027l-6.606,6.605l-70.301,-0.058l-0.057,-54.811Z" style="fill:none;stroke:#fff;stroke-width:1px;"/><path d="M72.711,8.462l-23.935,0l-7.461,7.15" style="fill:none;stroke:#fff;stroke-width:1px;"/><path d="M73.151,14.692l-22.485,0" style="fill:none;stroke:#fff;stroke-width:1px;"/><path d="M73.151,20.633l-22.485,0" style="fill:none;stroke:#fff;stroke-width:1px;"/><path d="M73.151,26.575l-22.485,0" style="fill:none;stroke:#fff;stroke-width:1px;"/><path d="M73.151,32.516l-22.485,0" style="fill:none;stroke:#fff;stroke-width:1px;"/><path d="M73.151,37.468l-22.485,0" style="fill:none;stroke:#fff;stroke-width:1px;"/><path d="M73.151,43.409l-22.485,0" style="fill:none;stroke:#fff;stroke-width:1px;"/><path d="M27.625,25.635l-0.104,-17.718c0,0 9.714,0.753 14.357,7.994c0.446,0.696 3.926,6.562 2.989,14.435l-17.242,-4.711Z" style="fill:none;stroke:#fff;stroke-width:1px;"/><path d="M31.373,11.288l-1.829,1.829" style="fill:none;stroke:#fff;stroke-width:1px;"/><path d="M35.176,12.555l-5.36,5.361" style="fill:none;stroke:#fff;stroke-width:1px;"/><path d="M38.146,14.584l-8.276,8.275" style="fill:none;stroke:#fff;stroke-width:1px;"/><path d="M40.174,17.445l-7.153,7.153" style="fill:none;stroke:#fff;stroke-width:1px;"/><path d="M42.054,20.586l-4.867,4.866" style="fill:none;stroke:#fff;stroke-width:1px;"/><path d="M42.507,25.339l-1.992,1.992" style="fill:none;stroke:#fff;stroke-width:1px;"/><path d="M44.692,33.849l-17.463,-4.643l7.737,15.916c4.833,-2.603 8.213,-6.261 9.726,-11.273Z" style="fill:none;stroke:#fff;stroke-width:1px;"/><path d="M9.494,19.136l14.036,10.39l7.295,15.584c-20.402,5.78 -30.451,-13.651 -21.331,-25.974Z" style="fill:none;stroke:#fff;stroke-width:1px;"/><path d="M24.041,7.77l0,17.684l-14.368,-10.168c3.138,-4.459 7.668,-7.27 14.368,-7.516Z" style="fill:none;stroke:#fff;stroke-width:1px;"/></g></svg>