<?xml version="1.0" encoding="UTF-8" standalone="no"?><!DOCTYPE svg PUBLIC "-//W3C//DTD SVG 1.1//EN" "http://www.w3.org/Graphics/SVG/1.1/DTD/svg11.dtd"><svg width="100%" height="100%" viewBox="0 0 59 65" version="1.1" xmlns="http://www.w3.org/2000/svg" xmlns:xlink="http://www.w3.org/1999/xlink" xml:space="preserve" style="fill-rule:evenodd;clip-rule:evenodd;stroke-linecap:round;stroke-linejoin:round;stroke-miterlimit:1.5;"><g><path d="M18.987,8.407l19.121,0" style="fill:none;stroke:#fff;stroke-width:1px;"/><path d="M49.733,8.942l5.29,0c0,0 2.677,-0.254 2.677,3.952c0,0 -0.26,47.885 0,48.145c0.26,0.26 0.111,3.997 -4.783,3.344l-48.352,0c0,0 -4.206,0.707 -4.061,-4.949l0,-48.131c0,0 -0.179,-3.148 3.326,-3.148l4.039,0" style="fill:none;stroke:#fff;stroke-width:1px;"/><path d="M17.777,2.752c0,-1.243 -1.009,-2.252 -2.252,-2.252l-4.505,0c-1.243,0 -2.253,1.009 -2.253,2.252l0,12.228c0,1.243 1.01,2.252 2.253,2.252l4.505,0c1.243,0 2.252,-1.009 2.252,-2.252l0,-12.228Z" style="fill:none;stroke:#fff;stroke-width:1px;"/><path d="M48.885,2.752c0,-1.243 -1.009,-2.252 -2.252,-2.252l-4.505,0c-1.243,0 -2.252,1.009 -2.252,2.252l0,12.228c0,1.243 1.009,2.252 2.252,2.252l4.505,0c1.243,0 2.252,-1.009 2.252,-2.252l0,-12.228Z" style="fill:none;stroke:#fff;stroke-width:1px;"/><path d="M1.03,25.556l56.197,0" style="fill:none;stroke:#fff;stroke-width:1px;"/><rect x="11.098" y="35.983" width="5.094" height="5.094" style="fill:none;stroke:#fff;stroke-width:1px;"/><rect x="11.098" y="47.648" width="5.094" height="5.094" style="fill:none;stroke:#fff;stroke-width:1px;"/><rect x="21.208" y="35.983" width="5.094" height="5.094" style="fill:none;stroke:#fff;stroke-width:1px;"/><rect x="21.208" y="47.648" width="5.094" height="5.094" style="fill:none;stroke:#fff;stroke-width:1px;"/><rect x="32.096" y="35.983" width="5.094" height="5.094" style="fill:none;stroke:#fff;stroke-width:1px;"/><rect x="32.096" y="47.648" width="5.094" height="5.094" style="fill:none;stroke:#fff;stroke-width:1px;"/><rect x="42.206" y="35.983" width="5.094" height="5.094" style="fill:none;stroke:#fff;stroke-width:1px;"/><rect x="42.206" y="47.648" width="5.094" height="5.094" style="fill:none;stroke:#fff;stroke-width:1px;"/></g></svg>