<?xml version="1.0" encoding="UTF-8" standalone="no"?><!DOCTYPE svg PUBLIC "-//W3C//DTD SVG 1.1//EN" "http://www.w3.org/Graphics/SVG/1.1/DTD/svg11.dtd"><svg width="100%" height="100%" viewBox="0 0 63 65" version="1.1" xmlns="http://www.w3.org/2000/svg" xmlns:xlink="http://www.w3.org/1999/xlink" xml:space="preserve" style="fill-rule:evenodd;clip-rule:evenodd;stroke-linecap:round;stroke-linejoin:round;stroke-miterlimit:1.5;"><g><circle cx="33.034" cy="9.964" r="4.051" style="fill:none;stroke:#fff;stroke-width:1px;"/><circle cx="11.096" cy="46.58" r="5.16" style="fill:none;stroke:#fff;stroke-width:1px;"/><circle cx="31.68" cy="46.58" r="5.16" style="fill:none;stroke:#fff;stroke-width:1px;"/><circle cx="51.368" cy="46.58" r="5.16" style="fill:none;stroke:#fff;stroke-width:1px;"/><path d="M0.5,63.509l61.909,0c0,0 -2.528,-9.091 -10.429,-8.933c-7.902,0.158 -10.932,7.525 -10.876,8.588c0,0 -1.05,-8.022 -9.28,-8.125c-8.231,-0.103 -11.024,4.922 -10.523,8.185c0,0 -0.167,-7.924 -10.491,-8.261c-5.518,-0.18 -10.145,3.63 -10.289,8.28" style="fill:none;stroke:#fff;stroke-width:1px;"/><path d="M28.71,22.824l-6.861,6.603l-7.896,-6.516l2.287,-2.891l4.746,4.358l6.386,-6.343l12.859,-0.259c0,0 1.338,-0.259 1.338,2.201l0.086,12.254l-2.506,1.79l0,3.237" style="fill:none;stroke:#fff;stroke-width:1px;"/><path d="M27.156,29.224l0.169,8.343" style="fill:none;stroke:#fff;stroke-width:1px;"/><path d="M20.161,34.786l-13.906,0.169l0,-34.455l49.846,0l0,34.247l-10.221,0" style="fill:none;stroke:#fff;stroke-width:1px;"/></g></svg>