<?xml version="1.0" encoding="UTF-8" standalone="no"?><!DOCTYPE svg PUBLIC "-//W3C//DTD SVG 1.1//EN" "http://www.w3.org/Graphics/SVG/1.1/DTD/svg11.dtd"><svg width="100%" height="100%" viewBox="0 0 107 152" version="1.1" xmlns="http://www.w3.org/2000/svg" xmlns:xlink="http://www.w3.org/1999/xlink" xml:space="preserve" style="fill-rule:evenodd;clip-rule:evenodd;stroke-linejoin:round;stroke-miterlimit:1.41421;"><path d="M10.184,4.085c0,0 1.362,-4.452 2.689,-3.254c0,0 2.825,1.884 4.067,2.783c0,0 1.883,4.366 5.65,3.167l6.398,10.389c0,0 1.032,0.436 -0.787,3.593c0,0 -0.481,5.778 1.98,4.227c2.461,-1.552 7.55,-6 7.336,0.367c0,0 -0.75,6.099 4.654,5.671c0,0 1.379,2.704 3.434,3.004l9.206,-0.38c0,0 4.52,-4.143 6.232,-3.048c0,0 2.329,0.925 2.295,3.801c0,0 1.712,2.158 3.218,1.644c0,0 3.827,-2.049 4.448,-2.743c0,0 4.31,-1.425 4.602,2.484c0,0 -0.616,4.938 6.251,4.295c0,0 6.107,-1.461 7.334,2.396c0,0 4.825,-2.815 6.578,1.13l2.556,4.78l2.226,0.456c0,0 1.769,5.422 6.449,5.879c0,0 -1.465,2.001 -6.077,3.051l0.411,5.02c0,0 -4.707,0.731 -5.763,4.951c0,0 -3.003,-1.38 -4.951,2.598c0,0 -4.545,-0.082 -1.461,-4.87l-1.786,-1.867l-0.081,-3.003l-2.922,0.811c0,0 -2.191,-0.73 -3.409,-3.815c0,0 -6.043,-0.319 -3.516,3.538c0,0 2.756,1.358 -1.234,3.686c0,0 -5.818,-0.333 -5.402,4.903c0,0 -1.763,2.146 -2.21,-0.046c0,0 -0.978,-3.83 -2.064,-1.596l-0.145,4.524c0,0 -0.886,2.715 -2.493,-1.164c0,0 -2.882,-4.71 -4.045,-1.33c0,0 0.886,6.206 7.314,8.201l-1.995,3.546c0,0 -0.609,1.164 1.275,0.942c0,0 3.955,0.146 2.592,3.865c0,0 -1.736,3.006 -3.068,-0.062c0,0 -2.784,-1.309 -2.652,1.952c0,0 -0.705,6.743 1.675,8.55c0,0 3.085,-3.305 4.672,0.308c0,0 0.088,3.746 1.895,0.529c0,0 1.013,-3.349 1.41,-1.983c0,0 -0.871,2.651 0.292,3.18c0,0 10.044,-0.29 8.774,5.422c0,0 -0.443,1.874 -1.802,3.343c0,0 0.523,10.539 -4.584,8.186c0,0 -5.451,-1.664 -6.14,2.869c0,0 0.975,5.05 2.525,3.386c0,0 2.353,-3.615 3.041,-2.525c0,0 1.418,4.646 -0.132,7.286c0,0 -2.869,4.361 -0.401,7.861c0,0 0.509,5.987 -3.974,9.663c0,0 -5.29,8.698 -11.566,6.815c0,0 -3.228,-0.269 -2.511,-3.049c0,0 -1.076,-2.152 -2.241,-0.448c0,0 -3.529,-2.32 -4.323,0.148c0,0 -2.497,1.469 -3.085,0.206c0,0 -0.535,-5.762 -2.791,-4.446c0,0 -2.445,0.893 -1.974,4.325l-4.937,-0.217c0,0 -3.103,-2.774 -0.329,-3.667c0,0 2.209,0.846 3.478,-0.611c0,0 6.516,-7.674 -1.357,-11.685l0.69,-5.042c0,0 0.685,-6.298 -2.533,-3.833c0,0 -1.232,3.08 -2.738,1.163c0,0 -6.085,-7.7 -10.345,-6.605c0,0 -3.955,4.26 -4.442,-0.243c0,0 -1.838,-2.258 -2.162,-0.214c0,0 0.823,4.038 0.2,3.315c0,0 -3.49,-1.745 -3.44,-4.512c0,0 1.064,-5.485 4.832,-4.031c0,0 2.167,-1.84 2.701,0.712l-0.267,1.958c0,0 1.216,-3.828 1.78,-3.976c0,0 2.455,-2.122 4.619,-2.774c0,0 0.618,-2.096 -2.782,-2.885l0.034,-3.572c0,0 -5.728,-0.924 -4.812,-4.74c0,0 3.396,-7.337 -2.954,-4.678c0,0 -3.962,1.791 -2.496,-1.031c0,0 0.38,-1.194 -1.031,-1.357c0,0 -2.443,-2.225 1.519,-3.582c0,0 -0.521,-2.564 -2.634,-2.729l7.184,-7.375c0,0 -6.532,-3.673 -3.513,-5.566c0,0 0.686,-2.031 -1.208,-2.196c0,0 0.209,-1.431 1.527,-1.458c0,0 -2.965,-2.388 -0.879,-3.376c0,0 2.383,-2.481 0.486,-3.535c0,0 -1.721,-2.424 1.581,-2.599c0,0 2.845,-2.248 -2.705,-2.459c0,0 -1.446,-2.666 2.582,-2.916c0,0 0.436,-4.673 -0.539,-5.741c0,0 -9.454,0.069 -11.675,-2.575c0,0 -2.643,-3.066 2.115,-2.802c0,0 4.652,-2.908 1.639,-4.864c0,0 -3.497,-3.007 1.701,-3.354c0,0 3.349,-3.638 1.27,-6.583c0,0 -0.635,-3.638 2.599,-3.696c0,0 3.934,-9.51 -3.752,-12.518c0,0 -7.353,-3.593 -9.776,-4.428c0,0 -4.261,-4.929 2.59,-5.096c0,0 2.674,-1.003 4.261,1.336c0.335,1.003 1.208,1.393 2.024,2.535Z" style="fill:#e8620c;"/></svg>