<?xml version="1.0" encoding="UTF-8" standalone="no"?><!DOCTYPE svg PUBLIC "-//W3C//DTD SVG 1.1//EN" "http://www.w3.org/Graphics/SVG/1.1/DTD/svg11.dtd"><svg width="100%" height="100%" viewBox="0 0 110 105" version="1.1" xmlns="http://www.w3.org/2000/svg" xmlns:xlink="http://www.w3.org/1999/xlink" xml:space="preserve" style="fill-rule:evenodd;clip-rule:evenodd;stroke-linejoin:round;stroke-miterlimit:1.41421;"><path d="M53.925,14.655c0,0 -3.676,-2.205 -1.471,-3.098c0,0 12.339,-1.837 16.329,0.893c0,0 -1.213,-4.091 3.68,-3.5c0,0 3.222,-1.982 3.021,-4.305c0,0 0.43,-1.548 1.29,-1.52l-0.172,-3.125c0,0 6.194,5.678 8.459,5.333c0,0 7.942,1.024 10.232,-1.031l0.206,3.054c0,0 5.62,-1.402 6.403,6.232c0,0 -2.451,3.199 1.558,3.279c0,0 2.316,3.315 -2.302,4.983c0,0 -6.928,3.656 -3.785,6.928c0,0 1.347,-1.016 2.339,0.56c0,0 0.701,2.861 3.27,2.569c0,0 0.7,2.861 0.583,4.963l3.242,2.159c0,0 0.173,7.871 -3.027,11.85c0,0 -0.45,3.303 1.392,5.806l0.159,3.289c0,0 4.299,2.116 4.669,6.013l-0.145,10.22c0,0 0.917,2.121 -3.038,2.236c-3.956,0.114 -2.165,10.299 -2.225,12.747l-2.389,3.225c0,0 -3.702,-1.314 -5.434,1.254c0,0 -1.532,-3.842 -2.765,-1.944c0,0 -3.365,-1.878 -2.818,0.529l0.197,5.553c0,0 -2.087,3.382 -5.385,2.463c-3.298,-0.918 -5.093,1.211 -5.511,2.63c0,0 -8.892,-6.108 -10.602,-11.808c0,0 -2.223,0.627 -3.306,-3.989c0,0 -6.971,1.803 -10.011,-4.562c0,0 -4.939,-14.059 -8.359,-12.444l-6.958,0.882c0,0 -2.966,-4.975 -4.906,-4.656c0,0 0.739,-4.485 -4.017,-5.164c0,0 -3.609,-5.671 -7.781,-6.11c0,0 -2.188,-1.597 -2.89,-4.162c0,0 -1.898,-2.354 -4.392,-2.248c-2.495,0.105 1.028,-5.428 -2.93,-4.416c0,0 -9.463,-1.036 -14.335,-8.722c0,0 7.549,-5.764 12.078,-6.862c0,0 2.745,-3.226 1.716,-8.098c0,0 3.041,-1.834 3.627,-3.591c0,0 3.982,-4.216 5.797,-0.234c0,0 0.469,2.401 2.694,2.46c0,0 7.144,2.635 7.964,3.747c0,0 0.937,-5.094 3.748,-2.459c0,0 3.104,2.225 4.802,0.293c0,0 3.475,-3.917 5.378,-0.927c0,0 0.753,2.527 2.339,0.288c0,0 0.972,-1.113 2.648,0.448c0,0 3.234,-1.233 1.767,-5.036c0,0 -2.511,-1.383 -0.633,-2.875Z" style="fill:#e8620c;"/></svg>