<?xml version="1.0" encoding="UTF-8" standalone="no"?><!DOCTYPE svg PUBLIC "-//W3C//DTD SVG 1.1//EN" "http://www.w3.org/Graphics/SVG/1.1/DTD/svg11.dtd"><svg width="100%" height="100%" viewBox="0 0 141 139" version="1.1" xmlns="http://www.w3.org/2000/svg" xmlns:xlink="http://www.w3.org/1999/xlink" xml:space="preserve" style="fill-rule:evenodd;clip-rule:evenodd;stroke-linejoin:round;stroke-miterlimit:1.41421;"><path d="M86.879,10.728c0,0 6.631,-10.172 11.576,-5.62l4.685,-3.795c0,0 5.107,-3.597 5.646,1.115c0,0 3.705,-2.302 5.791,0.791c0,0 6.115,4.856 5.683,0.648c0,0 -0.918,-5.856 3.302,-1.214c0,0 3.031,6.561 5.525,5.832c0,0 9.227,-10.271 11.805,-6.527c0,0 1.999,13.498 -11.199,7.543c0,0 -4.911,4.42 -0.921,10.62c0,0 0.795,3.642 -4.837,1.087c0,0 -10.438,-1.024 -6.116,6.441c0,0 3.241,2.799 -1.474,4.419c0,0 -5.503,-1.186 -4.736,11.186c0,0 -3.837,6.618 -4.412,12.661c0,0 -1.439,2.877 -4.316,5.563c0,0 0.325,5.647 3.682,11.018c0,0 2.494,2.877 -0.575,13.619l-1.703,16.661c0,0 -1.854,3.572 -5.405,4.295c0,0 -3.363,1.665 1.037,3.928c0,0 8.184,1.635 5.79,9.431c0,0 -5.926,10.243 -2.013,16.689c0,0 -0.691,2.071 -4.067,0.23c0,0 -3.529,-1.611 -4.757,-0.767c0,0 -2.993,-1.458 -4.604,0.767c0,0 -3.76,0.614 -3.453,-3.376c0,0 -0.077,-5.141 -5.294,0.383c0,0 -1.995,1.535 -5.908,-2.608c0,0 -2.885,0.395 -3.341,2.836c0,0 -3.353,0.241 -1.583,-3.192c0,0 3.031,-3.674 -2.306,-2.762c0,0 -0.916,-2.693 1.85,-3.866c0,0 5.992,-4.819 -0.378,-4.735c0,0 -2.125,-2.613 -2.554,-4.007c0,0 -4.899,-0.501 -5.865,1.752c0,0 -2.753,0.93 -1.108,-2.682c0,0 -7.045,-4.935 -12.695,-2.324c0,0 -2.584,0.886 -3.951,-2.58c0,0 -3.76,0.83 -4.834,-3.222c0,0 -2.987,1.084 -4.387,-1.216c0,0 -2.833,-1.566 -4.566,-0.966c0,0 -2.1,2.4 -3.033,1.266c0,0 -2.563,-0.89 -1.994,-2.975c0,0 -2.039,-0.664 -4.267,-3.935c0,0 -1.843,-5.072 -5.229,-5.26c0,0 -3.245,-0.612 -4.044,-2.352c0,0 -1.27,-1.175 -3.057,3.669c0,0 -2.775,1.41 -1.928,-1.929c0,0 0.478,-5.991 -4.475,-2.793c0,0 -4.515,-1.254 0.501,-5.204c0,0 7.399,-1.944 5.016,-3.7c0,0 -4.458,-5.039 0.884,-6.354c0,0 -0.37,-3.452 1.438,-4.068c0,0 0.885,-5.55 -1.992,-7.4c0,0 -1.986,-3.218 4.726,-2.465c0,0 -0.48,-4.109 -2.329,-5.205c0,0 1.918,-2.26 2.808,-2.055c0,0 -3.767,-0.548 -2.191,-3.561c0,0 0.068,-5.136 4.177,-2.465l2.695,-2.446c0,0 7.168,-5.143 6.35,-1.559c0,0 -1.714,3.156 1.753,4.792c0,0 3.858,0.585 5.026,3c0,0 3.234,-0.117 1.52,-4.246l-4.276,-8.283l6.867,-5.259l3.409,0.194l1.754,-1.899l4.285,-0.097l4.068,-4.103c0,0 7.111,-3.361 4.432,-3.458c0,0 -3.75,-5.309 0.78,-5.796c0,0 5.503,1.12 5.941,-1.656c0,0 3.355,-11.6 9.362,-8.678c0,0 2.516,-5.194 4.545,-4.302c0,0 3.896,1.867 4.627,4.059c0,0 2.354,5.276 4.302,3.571c0,0 1.115,-3.101 4.535,-1.104Z" style="fill:#e8620c;"/></svg>