<?xml version="1.0" encoding="UTF-8" standalone="no"?><!DOCTYPE svg PUBLIC "-//W3C//DTD SVG 1.1//EN" "http://www.w3.org/Graphics/SVG/1.1/DTD/svg11.dtd"><svg width="100%" height="100%" viewBox="0 0 148 121" version="1.1" xmlns="http://www.w3.org/2000/svg" xmlns:xlink="http://www.w3.org/1999/xlink" xml:space="preserve" style="fill-rule:evenodd;clip-rule:evenodd;stroke-linejoin:round;stroke-miterlimit:1.41421;"><path d="M53.352,12.91c0,0 5.054,1.914 6.209,-0.144c0,0 2.083,-2.768 1.686,-5.151c0,0 -0.403,-11.204 7.481,-4.532c0,0 2.195,-2.842 4.677,0.035c0,0 1.015,-3.271 3.948,0.282c0,0 3.441,-6.599 7.446,-1.41c0,0 2.087,-4.512 4.907,1.241c0,0 4.005,0.846 5.98,0c0,0 3.979,0.986 5.664,2.49c0,0 2.226,-0.12 2.827,-2.286c0,0 3.791,-0.301 4.693,1.745c0,0 6.499,-5.957 8.725,-1.204c0,0 4.813,-2.346 5.836,3.129c0,0 4.033,1.48 1.562,5.055c0,0 -0.756,5.533 8.235,6.27l5.263,3.888l-2.084,3.4l0.537,6.777c0,0 -3.505,1.09 2.648,6.698l0.26,4.527c0,0 3.037,3.116 2.025,10.671c0,0 2.586,0.839 3.511,4.215c0.926,3.375 3.534,7.134 2.275,9.584c0,0 -4.458,-3.777 -6.227,-2.688l-1.319,-5.638l-3.616,1.808c0,0 -2.499,-0.797 -2.924,2.234c0,0 -1.064,0.691 -3.616,-0.958c-2.552,-1.648 -2.067,4.982 -0.569,6.207c0,0 0.615,1.274 -1.236,2.656c0,0 3.563,3.549 0.339,5.03l-3.005,-0.087c0,0 4.051,5.053 1.35,9.191c0,0 -1.776,0.902 -0.197,2.971l-3.104,2.123c0,0 -2.069,-4.246 -4.138,-4.355l-9.339,0.051c0,0 -1.021,-3.675 -4.084,-2.722c0,0 -2.246,2.791 -3.267,2.382c0,0 -3.539,0.136 -5.921,-3.607c0,0 -2.321,0.144 -2.488,3.155c0,0 -3.772,1.371 -6.253,-1.222c0,0 -6.131,-3.218 -2.388,3.163c0,0 6.636,2.722 5.019,5.7c0,0 6.636,1.616 4.765,9.869c0,0 -6.767,0.253 -7.493,2.703c0,0 -2.133,-0.726 -1.815,2.904c0,0 -3.948,-1.452 -4.81,-0.045c0,0 -0.833,3.867 -2.406,1.78c0,0 -3.811,-2.662 -3.025,-0.121c0,0 3.334,5.826 -2.073,5.901c0,0 -2.836,-4.046 -6.844,-2.647c0,0 -3.239,-3.092 -4.853,0.812c0,0 -1.874,1.156 -3.81,-3.926c0,0 -1.778,-1.349 -2.665,-3.003c0,0 -1.613,-3.186 -4.154,0.766c0,0 -4.455,-0.458 -4.777,5.713c0,0 -3.24,0.413 -4.853,4.85l-6.102,0.379c0,0 -5.394,2.067 -7.915,-0.706c0,0 -2.357,-6.537 -6.491,-6.688c0,0 -2.253,-2.542 -2.213,-5.487l-1.108,-4.203c0,0 -4.875,-3.154 -1.835,-5.85c0,0 2.11,-3.375 -1.332,-5.325c0,0 1.205,-3.04 1.319,-4.474c0,0 0.553,-3.001 -3.654,-4.225c0,0 -2.982,-4.665 -5.812,-5.506l-4.13,-0.842c0,0 -3.485,-0.803 -2.376,-5.11c0,0 0,-5.482 1.632,-5.156c0,0 0.848,-6.331 5.351,-5.025c0,0 3.198,4.242 4.699,2.349l4.211,-3.424c0,0 0.499,-1.89 -1.39,-2.567c0,0 -2.658,-5.26 1.192,-5.688c0,0 1.615,-2.234 -1.664,-3.517l0.841,-8.855c0,0 7.414,-10.582 2.092,-10.962c0,0 -2.013,-2.843 1.166,-3.914c0,0 1.59,-2.984 -2.465,-2.887c0,0 -5.104,-7.739 2.337,-11.848c0,0 2.811,-0.216 1.168,4.975c0,0 -0.303,1.773 2.855,0.865c0,0 2.119,-1.038 2.682,3.806c0,0 5.71,-3.157 5.71,2.682c0,0 -1.972,2.419 3.074,3.044c0,0 4.903,0.144 5.528,3.317c0,0 2.21,0.433 4.774,-1.543c0,0 7.209,-4.272 8.972,-3.952c0,0 1.762,-1.922 -3.311,-2.83c0,0 -2.626,-4.726 3.68,-7.063Z" style="fill:#e8620c;"/></svg>