<?xml version="1.0" encoding="UTF-8" standalone="no"?><!DOCTYPE svg PUBLIC "-//W3C//DTD SVG 1.1//EN" "http://www.w3.org/Graphics/SVG/1.1/DTD/svg11.dtd"><svg width="100%" height="100%" viewBox="0 0 148 102" version="1.1" xmlns="http://www.w3.org/2000/svg" xmlns:xlink="http://www.w3.org/1999/xlink" xml:space="preserve" style="fill-rule:evenodd;clip-rule:evenodd;stroke-linejoin:round;stroke-miterlimit:1.41421;"><path d="M71.562,3.258l-1.541,-1.276l-1.807,-0.345c0,0 -1.382,-3.401 -6.244,-0.399c0,0 -2.218,0.503 -3.727,-0.326c0,0 -1.977,-0.807 -3.72,0.702c0,0 -4.506,-0.553 -2.359,1.806l-0.576,1.261c0,0 -0.514,0.266 -1.701,0.354c0,0 -2.533,-0.673 -4.605,1.223l-0.708,-0.09c0,0 -2.259,-3.52 -8.356,-2.336c0,0 -5.891,2.377 -9.166,6.492l-5.164,3.107c0,0 -3.111,-1.405 -6.98,0.444l-2.002,4.036c0,0 -1.43,1.706 -3.246,2.284l-2.863,6.342l-0.293,3.742l-6.504,7.076c0,0 0.673,1.346 2.023,1.669c0,0 1.468,0.293 1.38,1.262c0,0 3.786,-1.086 4.226,-0.059c0,0 0.616,0.939 -0.059,2.641c0,0 -0.499,1.409 0.088,1.938c0,0 2.022,1.351 4.26,1.314l0.366,1.614l2.825,-0.917c0,0 5.548,0.831 8.034,0.464c0,0 5.748,0.693 6.604,0.49c0,0 1.509,-1.509 1.305,-2.446c0,0 2.242,-0.408 2.731,-1.345c0,0 1.794,0.856 3.22,-0.123c0,0 3.424,-0.448 3.914,0.326c0,0 2.975,2.487 5.544,0.123c0,0 2.568,-0.979 2.527,0.489c0,0 -1.136,4.382 -1.593,5.425c0,0 1.37,1.925 0.424,3.262c0,0 -2.445,3.259 -2.749,3.912c0,0 -1.131,2.587 1.478,4.239c0,0 1.37,1.522 -0.065,2.783l-1.811,2.44l2.028,3.562c0,0 -0.123,4.057 2.82,4.675c0,0 3.213,0.115 3.93,-0.256c0,0 2.004,0.322 2.4,-0.148c0,0 2.302,1.568 4.558,1.489c2.256,-0.08 3.483,-1.386 4.077,-1.94c0,0 1.583,0.079 2.216,0.554c0,0 0.752,0.911 7.441,-0.87c0,0 2.977,0.69 5.727,3.751c0,0 4.098,5.447 5.602,7.314c0,0 0.889,1.994 0.878,2.371c0,0 -0.006,1.713 0.656,2.469c0,0 -0.425,3.022 0.424,4.675c0,0 -0.118,0.991 -0.377,1.676l0.189,1.794l0.243,0.592l1.208,-1.133c0,0 1.733,1.112 2.465,1.371c0,0 3.353,0.614 3.589,1.039l3.919,0.779l1.417,0.945c0,0 3.568,-1.709 6.638,-6.076l1.817,0.047c0,0 2.456,2.762 2.786,3.801l1.299,0.071l1.298,-1.275l0.331,-0.85l1.744,-1.446c0,0 1.417,-2.361 1.763,-3.117c0,0 2.109,-2.487 4.627,-1.983c0,0 6.916,1.555 9.038,-0.111c0,0 1.502,-0.748 1.928,-0.242l0.24,-2.612c0,0 1.835,-6.236 0.835,-8.864c0,0 -0.37,-1.406 -1.517,-1.777l-1.094,-2.98c0,0 -2.85,-1.998 -3.775,-3.257c0,0 -6.217,-2.924 -5.088,-14.502c0,0 -1.434,-4.772 -3.285,-6.16l-2.545,-5.494c0,0 -1.428,-6.727 -2.119,-7.32c0,0 -0.839,-1.184 0.345,-2.122c0,0 2.563,-1.041 3.028,-0.819c0,0 1.82,-0.485 1.82,-0.647c0,0 1.536,0.364 1.94,-0.04l5.109,-0.024l2.695,0.27l1.429,0.593l1.024,-1.914c0,0 3.029,-0.438 4.746,-0.242c0,0 4.342,-0.122 5.937,-1.055c0,0 2.895,0.246 4.269,-2.306c0,0 0.154,-1.864 0.563,-2.055c0,0 0.518,-2.998 -0.9,-3.544c0,0 -1.297,-0.708 -1.652,-1.451c0,0 -0.517,-2.585 -0.291,-3.586c0,0 -0.182,-4.314 -0.358,-4.726c-0.177,-0.412 -1.206,-2.323 -2.382,-1.529c0,0 -1.618,1.588 -2.529,1.911l-3.499,1.324c0,0 -3.5,-2.176 -4.764,-0.441c0,0 1.147,1.44 0.529,1.646c0.353,-0.206 -5.939,0.459 -5.939,0.459l-1.812,1.976c0,0 1.361,1.987 0.49,2.858c0,0 -6.843,4.198 -10.816,4.993c0,0 -4.548,4.841 -10.179,4.729c0,0 -2.064,-1.394 -3.959,-0.892c0,0 -3.235,-1.617 -4.071,-1.115c0,0 -1.032,0.755 -2.043,2.131c0,0 -0.914,0.159 -0.987,-0.146c-0.073,-0.304 -0.195,-0.987 -0.56,-0.67c0,0 -0.195,0.634 -0.134,0.877l-3.103,1.533c0,0 -1.709,0.25 -2.818,-0.627c-0.28,-0.158 -4.653,-2.217 -5.359,-1.912c0,0 -1.168,0.389 -1.26,1.668c0,0 -0.457,0.884 -1.522,0.838c-1.066,-0.046 -1.538,-0.838 -1.797,-1.69c0,0 -0.859,-2.129 -2.61,-1.749c0,0 -1.607,0.801 -2.468,1.873c0,0 -1.511,0.86 -2.339,-1.17c0,0 0.082,-3.916 -0.73,-4.458c0,0 -1.564,-2.646 -2.286,-2.947c0,0 -1.341,-3.354 -0.831,-3.999c0,0 2.256,-2.444 3.572,-2.068c0,0 3.829,1.639 5.051,2.037c0,0 2.536,1.65 3.819,1.038c0,0 1.894,-0.763 2.078,-1.802c0,0 0.213,-1.048 -1.514,-1.786c0,0 -2.541,-1.513 -1.668,-3.486c0,0 -1.508,-4.439 -2.09,-5.099c0,0 -1.81,-4.525 -2.615,-4.797Z" style="fill:#e8620c;"/></svg>