<?xml version="1.0" encoding="UTF-8" standalone="no"?><!DOCTYPE svg PUBLIC "-//W3C//DTD SVG 1.1//EN" "http://www.w3.org/Graphics/SVG/1.1/DTD/svg11.dtd"><svg width="100%" height="100%" viewBox="0 0 90 88" version="1.1" xmlns="http://www.w3.org/2000/svg" xmlns:xlink="http://www.w3.org/1999/xlink" xml:space="preserve" style="fill-rule:evenodd;clip-rule:evenodd;stroke-linejoin:round;stroke-miterlimit:1.41421;"><path d="M37.33,0l12.854,6.377l10.232,9.945c0,0 14.005,17.867 18.448,20.778c0,0 7.566,11.189 10.704,12.856c0,0 -0.924,3.224 0.432,5.031c0,0 -0.201,1.456 -5.674,2.611c0,0 3.357,4.367 0.47,9.325c0,0 -0.91,3.329 1.835,8.821c0,0 1.491,14.435 -15.925,11.375c0,0 -5.14,-0.578 -5.893,-0.327c-0.753,0.251 -4.519,-2.699 -4.519,-2.699c0,0 -12.458,-2.643 -12.458,-2.835c0,-0.191 -4.645,-0.511 -4.595,-4.026l0.05,-5.573l-4.569,-0.352c0,0 -3.503,-9.827 -9.428,-10.178l-5.523,-7.13c0,0 -5.529,0.813 -8.642,-5.212c0,0 -8.901,-3.239 -5.125,-9.064c0,0 1.633,-7.119 -4.141,-6.115c0,0 -3.327,-4.268 4.33,-5.46c0,0 4.582,-0.314 6.528,3.075l0.125,-3.201c0,0 -2.411,-2.393 -3.3,-6.682c-0.889,-4.289 -11.297,-10.617 -13.546,-10.879c0,0 4.849,-4.74 8.911,-3.892c0,0 10.575,0.998 13.253,0.15l15.166,-6.719Z" style="fill:#e8620c;"/></svg>