<?xml version="1.0" encoding="UTF-8" standalone="no"?><!DOCTYPE svg PUBLIC "-//W3C//DTD SVG 1.1//EN" "http://www.w3.org/Graphics/SVG/1.1/DTD/svg11.dtd"><svg width="100%" height="100%" viewBox="0 0 174 140" version="1.1" xmlns="http://www.w3.org/2000/svg" xmlns:xlink="http://www.w3.org/1999/xlink" xml:space="preserve" style="fill-rule:evenodd;clip-rule:evenodd;stroke-linejoin:round;stroke-miterlimit:1.41421;"><path d="M63.71,2.452l0.966,-0.951l1.495,2.19c0,0 0.218,3.596 0.979,6.234c0,0 3.125,4.168 9.873,5.893c0,0 3.044,0.101 3.907,1.065c0,0 2.74,-0.558 3.704,0.457l2.405,-0.149c0,0 7.013,-3.772 8.784,-1.139l0.056,2.043l-1.336,1.388c0,0 -3.96,-1.539 -4.061,1.336c0,0 0.095,1.315 -2.094,1.972c-2.189,0.657 -3.612,2.215 -4.285,3.216c0,0 -1.743,3.328 -2.088,4.258c0,0 0.554,3.486 1.716,4.648c0,0 3.108,3.501 3.873,4.606c0,0 2.146,1.589 2.455,2.193c0,0 0.635,1.161 1.269,1.826c0,0 7.703,7.902 8.638,8.998l8.973,8.895c0,0 2.488,3.523 3.842,4.619c0,0 0.475,1.371 -0.449,1.807c0,0 -2.797,2.103 0.219,3.908c0,0 5.709,-0.585 6.17,1.657c0,0 0.146,1.094 0.631,1.817c0,0 0.459,0.381 0.317,1.533c0,0 -0.063,1.073 0.663,2.019c0,0 0.631,2.531 0.691,3.373c0,0 1.194,5.777 3.698,8.01c0,0 1.816,1.043 2.484,1.356c0,0 2.316,-0.104 2.671,-0.981c0,0 0.91,-4.411 1.315,-4.317c0,0 3.009,0.373 4.159,2.033c0,0 1.173,1.461 1.328,2.213l0.415,3.435c0,0 0.361,0.788 2.109,0.891c0,0 3.271,-0.429 4.128,0.839c0,0 1.566,1.905 0.209,3.499c0,0 -0.095,1.309 1.737,2.427c0,0 1.807,0.963 -1.907,4.419c0,0 -1.234,1.775 5.09,3.103l10.39,2.256c0,0 1.955,-1.324 3.85,1.022c0,0 2.075,1.562 2.614,2.781c0,0 2.875,0.577 3.645,0.847c0,0 1.868,1.871 1.267,2.592c0,0 0.822,0.983 0.1,2.106c0,0 1.885,1.343 2.607,1.764c0,0 1.162,0.385 1.062,1.007c0,0 0.04,2.108 -4.06,5.719c0,0 -3.666,2.094 -4.348,2.816c0,0 -2.967,1.163 -2.406,4.01c0,0 0.727,2.288 -0.336,3.33c0,0 -1.465,0.276 -3.109,-0.627c0,0 -2.646,-1.022 -3.328,-1.022c0,0 -7.538,-1.72 -9.292,-1.939c0,0 1.441,-2.851 -0.376,-3.509l-12.409,-4.233l-2.005,0.969c0,0 -0.402,-2.039 -1.738,-1.905c0,0 -3.726,1.076 -5.334,0.05c0,0 -2.875,0.513 -3.662,0.171c0,0 -2.327,-0.137 -2.771,0.273c0,0 -4.344,0.091 -6.524,-0.805c0,0 -3.621,-0.506 -4.634,0.156l-8.916,-3.738c0,0 -1.596,1.654 -13.613,-2.001l-2.27,-0.332l-13.762,-5.436c0,0 -1.813,0.248 -3.131,-0.412l-3.695,-1.348c0,0 -3.726,-0.297 -4.564,-0.837c0,0 -2.349,-0.405 -1.782,2.566c0,0 0.208,2.004 -1.952,4.625c0,0 -1.371,1.374 -1.6,4.586l-1.868,2.917c0,0 -3.179,0.294 -4.981,-0.885c0,0 -0.941,1.214 -0.957,1.836c0,0 -0.491,-0.016 -1.08,-0.605c0,0 -4.532,-3.993 -5.498,-1.931c0,0 -1.656,0.922 -4.449,0.27c0,0 -2.01,-0.037 -2.159,1.527c0,0 -1.217,-3.422 -3.567,-3.608c0,0 -1.955,-1.234 -1.28,-3.258c0,0 2.598,-6.613 3.459,-6.916c0,0 -0.303,-2.164 -2.863,-2.071c0,0 -2.143,-1.004 -3.421,-0.737c0,0 -3.367,-1.453 -4.499,-4.119c0,0 -0.624,-4.499 -2.899,-5.079c0,0 -2.524,-1.572 -4.282,-1.551c0,0 -0.924,-2.145 -2.642,-2.334c0,0 -0.801,-2.424 1.318,-2.777c0,0 2.847,-0.659 0.941,-1.718c0,0 -2.408,-1.504 -3.086,-3.688c0,0 1.386,-7.354 -4.459,-6.177c0,0 -2.706,-0.196 -1.647,-1.883c0,0 2.627,-2.274 1.218,-2.388c0,0 -3.217,-2.947 -3.674,-6.298c0,0 -0.183,-2.133 2.803,-2.377c0,0 1.292,-2.579 1.877,-3.124c0,0 0.819,-2.672 0.273,-2.925c0,0 -3.566,-1.377 -4.143,-2.109c0,0 -0.932,-1.508 0.333,-2.44c0,0 2.819,-2.583 2.794,-4.063c0,0 0.214,-1.946 0.799,-2.624l0.37,-6.101c0,0 4.21,-4.16 6.482,-4.791c0,0 3.622,-5.287 3.859,-7.101l4.89,-8.356c0,0 -0.315,-0.986 0.198,-1.302c0,0 -0.079,-2.327 0.788,-2.406c0,0 0.908,-1.065 -0.354,-2.208l-0.183,-1.592l1.199,-1.956l4.102,0.788c0,0 0.537,-1.767 5.238,-3.25c0,0 2.646,-1.329 3.488,-3.138l0.084,-2.987c0,0 -1.431,-1.809 -1.01,-3.071c0,0 1.851,-1.052 3.366,-0.673c0,0 1.977,-0.799 2.524,-1.809c0,0 1.136,-0.757 1.725,0.126c0,0 0.883,1.599 0.841,2.44c0,0 0.884,0.505 1.305,-0.252c0,0 1.178,-1.389 1.767,-0.8l1.472,0.674l-0.336,-2.356c0,0 -1.347,-1.557 -1.347,-2.314c0,0 0.547,-1.473 2.777,-0.884c0,0 2.104,0.042 3.155,0.884c0,0 1.223,1.697 2.851,1.486c0,0 2.719,-0.268 3.389,0.46c0,0 1.997,1.916 2.511,2.04c0,0 2.18,-2.518 2.624,-2.482c0,0 0.888,-0.026 1.197,-0.075Z" style="fill:#e8620c;"/></svg>