<?xml version="1.0" encoding="UTF-8" standalone="no"?><!DOCTYPE svg PUBLIC "-//W3C//DTD SVG 1.1//EN" "http://www.w3.org/Graphics/SVG/1.1/DTD/svg11.dtd"><svg width="100%" height="100%" viewBox="0 0 40 40" version="1.1" xmlns="http://www.w3.org/2000/svg" xmlns:xlink="http://www.w3.org/1999/xlink" xml:space="preserve" style="fill-rule:evenodd;clip-rule:evenodd;stroke-linejoin:round;stroke-miterlimit:1.41421;"><g><path d="M39.5,19.75c0,10.908 -8.842,19.75 -19.75,19.75c-10.908,0 -19.75,-8.842 -19.75,-19.75c0,-10.908 8.842,-19.75 19.75,-19.75c10.908,0 19.75,8.842 19.75,19.75" style="fill:#fff;fill-rule:nonzero;"/><path d="M25.424,16.376c0.164,0 0.329,0 0.493,0c0.221,0 0.442,-0.003 0.663,0c0.26,0.004 0.595,-0.155 0.713,-0.536c0.026,-0.087 0.035,-0.182 0.035,-0.274c0.003,-0.724 0.002,-1.449 0.001,-2.174c0,-0.061 -0.005,-0.123 -0.015,-0.184c-0.031,-0.191 -0.124,-0.347 -0.276,-0.465c-0.147,-0.116 -0.316,-0.166 -0.502,-0.166c-0.74,0.001 -1.48,0 -2.22,0c-0.021,0.001 -0.041,0 -0.062,0.002c-0.421,0.03 -0.698,0.352 -0.72,0.696c-0.004,0.052 -0.006,0.103 -0.006,0.153c0,0.7 0,1.399 0.001,2.097c0,0.063 0.002,0.125 0.008,0.186c0.024,0.216 0.129,0.386 0.301,0.516c0.136,0.104 0.29,0.151 0.461,0.15c0.375,-0.003 0.75,-0.001 1.125,-0.001m-9.494,3.806c0.013,2.164 1.774,3.798 3.806,3.794c2.073,-0.005 3.795,-1.694 3.793,-3.805c-0.002,-2.048 -1.654,-3.795 -3.805,-3.793c-2.106,0.003 -3.789,1.701 -3.794,3.804m-3.796,-1.52c-0.002,0.077 -0.004,0.138 -0.004,0.198c0,2.681 0,5.361 0,8.04c0,0.047 -0.002,0.094 0.001,0.139c0.028,0.456 0.381,0.719 0.72,0.731c0.046,0.001 0.092,0.003 0.138,0.003c4.496,0 8.992,0 13.487,0c0.057,0 0.114,-0.002 0.17,-0.007c0.349,-0.033 0.622,-0.294 0.671,-0.64c0.011,-0.082 0.012,-0.164 0.012,-0.246c0.001,-2.671 0.001,-5.341 0.001,-8.01c0,-0.041 0.002,-0.082 -0.001,-0.123c-0.003,-0.029 -0.013,-0.057 -0.019,-0.083c-0.226,-0.018 -1.575,-0.013 -1.689,0.008c0.43,1.847 0.125,3.558 -0.991,5.098c-1.123,1.55 -2.841,2.389 -4.58,2.475c-0.292,0.016 -0.586,0.013 -0.878,-0.015c-0.293,-0.027 -0.582,-0.073 -0.867,-0.142c-0.285,-0.069 -0.563,-0.16 -0.836,-0.268c-0.267,-0.107 -0.527,-0.232 -0.776,-0.376c-0.253,-0.148 -0.497,-0.311 -0.727,-0.495c-0.229,-0.183 -0.447,-0.377 -0.648,-0.591c-0.201,-0.214 -0.389,-0.44 -0.557,-0.681c-0.168,-0.241 -0.321,-0.489 -0.454,-0.751c-0.132,-0.263 -0.244,-0.534 -0.338,-0.812c-0.093,-0.272 -0.164,-0.55 -0.217,-0.834c-0.053,-0.29 -0.084,-0.58 -0.095,-0.873c-0.011,-0.293 0.003,-0.585 0.033,-0.878c0.029,-0.29 0.095,-0.575 0.154,-0.867l-1.71,0Zm17.469,1.524c0,2.526 -0.001,5.052 0.001,7.576c0.001,0.303 -0.045,0.597 -0.165,0.873c-0.349,0.799 -0.959,1.265 -1.819,1.403c-0.055,0.009 -0.113,0.009 -0.169,0.01c-0.062,0.003 -0.123,0.002 -0.185,0.002c-5.025,0.001 -10.05,0 -15.076,0.001c-0.243,0 -0.481,-0.023 -0.715,-0.093c-0.744,-0.22 -1.44,-0.867 -1.595,-1.83c-0.023,-0.142 -0.028,-0.287 -0.029,-0.43c-0.001,-1.42 -0.001,-2.84 -0.001,-4.259c0,-3.59 0.001,-7.182 0,-10.771c0,-0.295 0.031,-0.586 0.139,-0.863c0.319,-0.819 0.914,-1.31 1.775,-1.476c0.125,-0.024 0.256,-0.027 0.384,-0.031c0.18,-0.005 0.36,-0.001 0.54,-0.001c4.85,0 9.701,0 14.551,0c0.306,0 0.607,0.032 0.892,0.148c0.824,0.338 1.311,0.947 1.456,1.826c0.019,0.116 0.016,0.236 0.016,0.355c0,2.52 0,5.04 0,7.56" style="fill:#fc884a;fill-rule:nonzero;"/></g></svg>