<?xml version="1.0" encoding="UTF-8" standalone="no"?><!DOCTYPE svg PUBLIC "-//W3C//DTD SVG 1.1//EN" "http://www.w3.org/Graphics/SVG/1.1/DTD/svg11.dtd"><svg width="100%" height="100%" viewBox="0 0 40 40" version="1.1" xmlns="http://www.w3.org/2000/svg" xmlns:xlink="http://www.w3.org/1999/xlink" xml:space="preserve" style="fill-rule:evenodd;clip-rule:evenodd;stroke-linejoin:round;stroke-miterlimit:1.41421;"><g><path d="M39.5,19.75c0,10.908 -8.842,19.75 -19.75,19.75c-10.908,0 -19.75,-8.842 -19.75,-19.75c0,-10.908 8.842,-19.75 19.75,-19.75c10.908,0 19.75,8.842 19.75,19.75" style="fill:#fff;fill-rule:nonzero;"/><path d="M16.04,25.621c-1.97,-0.227 -3.324,-1.179 -4.036,-3.036c0.635,0.004 1.231,0.071 1.817,-0.1c-1.219,-0.363 -2.17,-1.053 -2.792,-2.172c-0.367,-0.661 -0.568,-1.359 -0.538,-2.167c0.587,0.312 1.191,0.478 1.843,0.511c-1.168,-0.923 -1.794,-2.109 -1.808,-3.598c-0.007,-0.769 0.241,-1.706 0.566,-2.152c0.397,0.388 0.788,0.778 1.187,1.159c1.894,1.809 4.155,2.858 6.734,3.241c0.321,0.048 0.647,0.071 0.97,0.104c0.019,0.002 0.04,-0.006 0.086,-0.013c-0.006,-0.072 -0.011,-0.144 -0.019,-0.216c-0.133,-1.196 0.032,-2.325 0.784,-3.307c0.997,-1.302 2.308,-1.915 3.957,-1.78c0.954,0.079 1.778,0.45 2.478,1.089c0.216,0.197 0.43,0.264 0.696,0.165c0.62,-0.233 1.24,-0.468 1.858,-0.706c0.153,-0.059 0.301,-0.132 0.503,-0.222c-0.344,0.974 -0.947,1.688 -1.701,2.304c0.768,-0.044 1.477,-0.32 2.197,-0.551c0.011,0.015 0.021,0.029 0.031,0.043c-0.09,0.127 -0.176,0.258 -0.273,0.38c-0.483,0.601 -1.011,1.157 -1.626,1.625c-0.123,0.093 -0.169,0.194 -0.181,0.344c-0.065,0.834 -0.067,1.682 -0.225,2.498c-0.722,3.737 -2.636,6.689 -5.932,8.661c-1.767,1.058 -3.701,1.592 -5.77,1.593c-0.948,0 -1.895,0.019 -2.834,-0.16c-1.486,-0.283 -2.861,-0.84 -4.159,-1.603c-0.035,-0.02 -0.067,-0.048 -0.102,-0.101c1.108,-0.015 2.213,-0.013 3.29,-0.331c1.073,-0.317 2.054,-0.802 2.999,-1.502" style="fill:#fc884a;fill-rule:nonzero;"/></g></svg>