<?xml version="1.0" encoding="UTF-8" standalone="no"?><!DOCTYPE svg PUBLIC "-//W3C//DTD SVG 1.1//EN" "http://www.w3.org/Graphics/SVG/1.1/DTD/svg11.dtd"><svg width="100%" height="100%" viewBox="0 0 40 40" version="1.1" xmlns="http://www.w3.org/2000/svg" xmlns:xlink="http://www.w3.org/1999/xlink" xml:space="preserve" style="fill-rule:evenodd;clip-rule:evenodd;stroke-linejoin:round;stroke-miterlimit:1.41421;"><g><path d="M39.5,19.75c0,10.908 -8.842,19.75 -19.75,19.75c-10.908,0 -19.75,-8.842 -19.75,-19.75c0,-10.908 8.842,-19.75 19.75,-19.75c10.908,0 19.75,8.842 19.75,19.75" style="fill:#fff;fill-rule:nonzero;"/><path d="M23.704,19.921c-2.234,-1.166 -4.428,-2.31 -6.634,-3.461l0,6.901c2.213,-1.148 4.402,-2.282 6.634,-3.44m6.497,-1.534l0,3.437c-0.009,0.065 -0.022,0.13 -0.026,0.195c-0.026,0.422 -0.04,0.844 -0.076,1.265c-0.062,0.708 -0.126,1.421 -0.371,2.094c-0.331,0.906 -0.977,1.483 -1.925,1.686c-0.346,0.074 -0.704,0.107 -1.058,0.125c-1.442,0.074 -2.885,0.169 -4.329,0.191c-1.867,0.03 -3.735,0.005 -5.602,-0.008c-1.579,-0.011 -3.155,-0.087 -4.727,-0.243c-1.232,-0.122 -2.195,-0.944 -2.422,-2.165c-0.133,-0.713 -0.204,-1.439 -0.289,-2.161c-0.039,-0.324 -0.044,-0.653 -0.065,-0.979l0,-3.404c0.009,-0.054 0.023,-0.108 0.026,-0.162c0.025,-0.416 0.04,-0.833 0.075,-1.248c0.06,-0.726 0.126,-1.456 0.376,-2.144c0.328,-0.907 0.976,-1.484 1.924,-1.685c0.357,-0.076 0.726,-0.111 1.091,-0.129c1.432,-0.073 2.864,-0.166 4.296,-0.189c1.867,-0.029 3.735,-0.003 5.603,0.009c1.579,0.011 3.154,0.088 4.727,0.243c1.174,0.117 2.13,0.874 2.388,2.019c0.157,0.697 0.222,1.415 0.309,2.125c0.046,0.374 0.052,0.752 0.075,1.128" style="fill:#fc884a;fill-rule:nonzero;"/></g></svg>