<?xml version="1.0" encoding="UTF-8" standalone="no"?><!DOCTYPE svg PUBLIC "-//W3C//DTD SVG 1.1//EN" "http://www.w3.org/Graphics/SVG/1.1/DTD/svg11.dtd"><svg width="100%" height="100%" viewBox="0 0 40 40" version="1.1" xmlns="http://www.w3.org/2000/svg" xmlns:xlink="http://www.w3.org/1999/xlink" xml:space="preserve" style="fill-rule:evenodd;clip-rule:evenodd;stroke-linejoin:round;stroke-miterlimit:1.41421;"><g><path d="M39.5,19.75c0,10.908 -8.842,19.75 -19.75,19.75c-10.908,0 -19.75,-8.842 -19.75,-19.75c0,-10.908 8.842,-19.75 19.75,-19.75c10.908,0 19.75,8.842 19.75,19.75" style="fill:#fff;fill-rule:nonzero;"/><path d="M23.366,10.631c-0.003,0.061 -0.01,0.122 -0.01,0.184c0,0.989 -0.003,1.979 0.003,2.968c0.001,0.138 -0.04,0.172 -0.174,0.171c-0.538,-0.005 -1.076,-0.005 -1.615,0.005c-0.183,0.004 -0.367,0.032 -0.548,0.066c-0.339,0.064 -0.587,0.339 -0.601,0.722c-0.026,0.696 -0.023,1.394 -0.036,2.091c-0.002,0.127 0.083,0.105 0.157,0.105c0.876,0.001 1.753,0.001 2.63,0.001l0.199,0c-0.118,1.119 -0.233,2.212 -0.35,3.316l-2.632,0l0,0.208c-0.001,3.081 -0.002,6.163 -0.003,9.244c0,0.062 -0.004,0.123 -0.005,0.185l-3.601,0c0.001,-0.288 0.003,-0.575 0.003,-0.862c0.001,-2.841 0.001,-5.683 0.001,-8.524l0,-0.246l-2.4,0c-0.004,-0.067 -0.009,-0.117 -0.009,-0.167c0,-0.995 0.002,-1.99 -0.003,-2.985c-0.001,-0.137 0.04,-0.172 0.174,-0.171c0.687,0.006 1.375,-0.002 2.062,0.005c0.146,0.002 0.178,-0.047 0.178,-0.184c0.004,-0.892 0,-1.785 0.032,-2.676c0.023,-0.649 0.159,-1.28 0.46,-1.867c0.33,-0.643 0.843,-1.081 1.525,-1.298c0.379,-0.12 0.778,-0.172 1.168,-0.254c0.055,-0.012 0.109,-0.025 0.164,-0.037l3.231,0Z" style="fill:#fc884a;fill-rule:nonzero;"/></g></svg>